<?xml version="1.0" encoding="UTF-8"?>
<svg id="Navbar" xmlns="http://www.w3.org/2000/svg" version="1.1" viewBox="0 0 1080 300">
  <!-- Generator: Adobe Illustrator 29.7.1, SVG Export Plug-In . SVG Version: 2.1.1 Build 8)  -->
  <defs>
    <style>
      .st0, .st1 {
        fill: maroon;
      }

      .st2 {
        font-family: MyriadPro-Regular, 'Myriad Pro';
        font-size: 21.09px;
      }

      .st3 {
        fill: #f0b71a;
      }

      .st1 {
        font-family: BerlinSansFBDemi-Bold, 'Berlin Sans FB Demi';
        font-size: 109.48px;
        font-weight: 700;
        stroke: #fff;
        stroke-miterlimit: 10;
        stroke-width: .5px;
      }
    </style>
  </defs>
  <path class="st0" d="M519.55,135.99v36.61c0,6.07.32,10.92.98,14.56.65,3.63,1.4,6.46,2.23,8.48.83,2.39,1.84,4.05,3.03,5v1.79h-23.04c-1.55,0-2.83-.51-3.84-1.52-1.01-1.01-1.52-2.29-1.52-3.84v-25.71c-.36,2.03-.95,4.76-1.79,8.22-.83,3.45-2.08,6.87-3.75,10.27-1.67,3.39-3.81,6.34-6.43,8.84-2.62,2.5-5.83,3.75-9.64,3.75-4.76,0-9.05-1.07-12.86-3.22-3.81-2.14-7.21-4.91-10.18-8.3-2.98-3.39-5.51-7.11-7.59-11.16-2.08-4.05-3.78-7.97-5.09-11.78-1.31-3.81-2.26-7.2-2.86-10.18-.6-2.97-.89-5.12-.89-6.43.12-2.86.86-5.33,2.23-7.41,1.37-2.08,3.09-3.84,5.18-5.27,2.08-1.43,4.4-2.56,6.96-3.39,2.56-.83,5.09-1.37,7.59-1.61,0-2.98.15-5.83.45-8.57.3-2.74.8-5.47,1.52-8.21.6-2.86,1.84-5.56,3.75-8.13,1.9-2.56,4.26-4.79,7.06-6.7,2.8-1.9,5.89-3.42,9.28-4.55,3.39-1.13,6.82-1.7,10.27-1.7s7.05.65,10.45,1.96,6.43,3.42,9.11,6.34c2.68,2.92,4.85,6.76,6.52,11.52,1.67,4.76,2.56,10.54,2.68,17.32h6.43v3.03h-6.25ZM497.41,135.99h-21.25c-1.67.12-3.45.45-5.36.98-1.91.54-3.66,1.37-5.27,2.5-1.61,1.13-2.95,2.65-4.02,4.56-1.07,1.9-1.61,4.28-1.61,7.14,0,1.9.38,4.46,1.16,7.68.77,3.21,1.84,6.64,3.21,10.27,1.37,3.63,2.95,7.26,4.73,10.89,1.79,3.63,3.69,6.88,5.71,9.73,1.79,2.39,4.05,3.58,6.79,3.58,1.67,0,3.27-.48,4.82-1.43,1.55-.95,2.68-2.32,3.39-4.11,1.79-4.64,3.51-9.7,5.18-15.18,1.67-5.47,2.5-10.95,2.5-16.43v-20.18ZM460.8,126.35c-.36,1.91-.36,4.23,0,6.96,1.31-.12,2.8-.2,4.46-.27,1.67-.06,3.51-.09,5.54-.09h26.61v-5c0-3.09-.54-5.86-1.61-8.3-1.07-2.44-2.44-4.49-4.11-6.16-1.67-1.67-3.6-2.95-5.8-3.84-2.21-.89-4.5-1.34-6.88-1.34-4.05,0-7.83,1.43-11.34,4.29-3.51,2.86-5.81,7.44-6.88,13.75Z"/>
  <path class="st0" d="M534.02,102.24c2.62-.6,5.18-1.13,7.68-1.61,2.26-.47,4.67-.86,7.23-1.16,2.56-.3,4.85-.45,6.87-.45s3.66.21,4.91.62c1.25.42,1.88,1.1,1.88,2.06v92.86c0,4.89-.06,10.24-.18,16.07-.12,5.83-.51,11.54-1.16,17.14-.65,5.6-1.73,10.74-3.21,15.45-1.49,4.7-3.6,8.36-6.34,10.98-3.1,3.09-6.55,5.53-10.36,7.32-3.81,1.78-7.77,3.15-11.88,4.11-4.11.95-8.28,1.58-12.5,1.87-4.23.3-8.42.45-12.59.45s-7.68-.18-10.89-.54c-3.21-.35-4.88-1.01-5-1.96l-2.68-30.9c.71,4.52,2.02,8.66,3.93,12.41,1.9,3.75,4.23,6.96,6.96,9.64,2.74,2.68,5.74,4.73,9.02,6.16,3.27,1.43,6.52,2.14,9.73,2.14,5.36,0,9.67-1.42,12.95-4.28,3.27-2.86,5.77-6.4,7.5-10.63,1.72-4.23,2.88-8.78,3.48-13.66.6-4.89.95-9.41,1.07-13.57.12-2.14.21-5.06.27-8.75.06-3.69.09-7.85.09-12.5s-.03-9.58-.09-14.82c-.06-5.24-.09-10.41-.09-15.53,0-12.15-.06-25.18-.18-39.11,0-6.07-.33-10.92-.98-14.55-.65-3.63-1.4-6.45-2.23-8.48-.95-2.38-2.02-4.05-3.21-5v-1.79ZM550.09,87.6c-3.69,0-6.78-.92-9.28-2.77-2.5-1.84-3.75-4.08-3.75-6.7s1.25-5.03,3.75-6.88c2.5-1.84,5.59-2.77,9.28-2.77s6.61.93,9.11,2.77c2.5,1.85,3.75,4.14,3.75,6.88s-1.25,4.85-3.75,6.7c-2.5,1.85-5.53,2.77-9.11,2.77Z"/>
  <path class="st0" d="M600.62,159.57c-1.9.95-3.33,2.35-4.28,4.2-.96,1.84-1.25,3.84-.89,5.98.36,2.38.98,5.39,1.87,9.02.89,3.63,2.11,7.14,3.66,10.54s3.48,6.31,5.8,8.75c2.32,2.44,5.09,3.66,8.31,3.66.95,0,2.56-.27,4.82-.81,2.26-.54,4.67-1.93,7.24-4.2,2.56-2.25,5.03-5.71,7.41-10.36,2.38-4.64,4.17-11.07,5.36-19.28h2.14c-.71,6.91-2.2,13.16-4.46,18.75-.95,2.39-2.11,4.73-3.48,7.06-1.37,2.32-3.01,4.41-4.91,6.25-1.91,1.84-4.08,3.39-6.52,4.64-2.44,1.25-5.27,1.94-8.48,2.06-5.6,0-10.86-1.61-15.81-4.82-4.94-3.21-9.31-7.47-13.12-12.77-3.81-5.3-6.96-11.31-9.46-18.04-2.5-6.72-4.14-13.57-4.91-20.54-.77-6.97-.63-13.81.45-20.54,1.07-6.72,3.3-12.73,6.7-18.04,3.39-5.3,8.06-9.55,14.02-12.77,5.95-3.21,13.33-4.82,22.14-4.82,3.81.24,7.02.42,9.64.54,2.62.12,4.88.18,6.79.18,3.09,0,5.24-.24,6.43-.71,1.19-.47,1.96-1.19,2.32-2.14h2.68v33.57c0,3.46-1.55,6.91-4.64,10.36-3.1,3.46-6.82,6.73-11.16,9.82-4.35,3.1-8.87,5.89-13.57,8.39-4.7,2.5-8.72,4.53-12.05,6.07ZM594.02,150.99c0,1.67.54,2.98,1.6,3.93,1.07.95,2.32,1.43,3.75,1.43.95,0,1.78-.18,2.5-.54,2.86-1.54,6.27-3.36,10.27-5.45,3.99-2.08,7.77-4.4,11.34-6.96,3.57-2.56,6.61-5.33,9.1-8.3,2.5-2.98,3.75-6.19,3.75-9.64,0-2.38-.45-5.27-1.34-8.66-.89-3.39-2.29-6.58-4.2-9.55-1.9-2.98-4.37-5.42-7.41-7.32-3.03-1.9-6.76-2.56-11.16-1.96-2.27.48-4.37,1.79-6.34,3.93-1.96,2.14-3.7,4.91-5.18,8.3-1.49,3.39-2.77,7.29-3.84,11.7-1.07,4.41-1.91,9.23-2.5,14.47-.12,1.31-.21,3.39-.27,6.25-.06,2.86-.09,5.66-.09,8.39Z"/>
  <path class="st0" d="M679.55,159.57c-1.9.95-3.33,2.35-4.28,4.2-.96,1.84-1.25,3.84-.89,5.98.36,2.38.98,5.39,1.87,9.02.89,3.63,2.11,7.14,3.66,10.54s3.48,6.31,5.8,8.75c2.32,2.44,5.09,3.66,8.31,3.66.95,0,2.56-.27,4.82-.81,2.26-.54,4.67-1.93,7.24-4.2,2.56-2.25,5.03-5.71,7.41-10.36,2.38-4.64,4.17-11.07,5.36-19.28h2.14c-.71,6.91-2.2,13.16-4.46,18.75-.95,2.39-2.11,4.73-3.48,7.06-1.37,2.32-3.01,4.41-4.91,6.25-1.91,1.84-4.08,3.39-6.52,4.64-2.44,1.25-5.27,1.94-8.48,2.06-5.6,0-10.86-1.61-15.81-4.82-4.94-3.21-9.32-7.47-13.12-12.77-3.81-5.3-6.96-11.31-9.46-18.04-2.5-6.72-4.14-13.57-4.91-20.54-.77-6.97-.63-13.81.44-20.54,1.07-6.72,3.3-12.73,6.7-18.04,3.39-5.3,8.06-9.55,14.02-12.77,5.95-3.21,13.33-4.82,22.14-4.82,3.81.24,7.02.42,9.64.54,2.62.12,4.88.18,6.79.18,3.09,0,5.24-.24,6.43-.71,1.19-.47,1.96-1.19,2.32-2.14h2.68v33.57c0,3.46-1.55,6.91-4.64,10.36-3.1,3.46-6.82,6.73-11.16,9.82-4.35,3.1-8.87,5.89-13.57,8.39-4.7,2.5-8.72,4.53-12.05,6.07ZM672.95,150.99c0,1.67.54,2.98,1.61,3.93,1.07.95,2.32,1.43,3.75,1.43.95,0,1.78-.18,2.5-.54,2.86-1.54,6.27-3.36,10.27-5.45,3.99-2.08,7.77-4.4,11.34-6.96,3.57-2.56,6.61-5.33,9.1-8.3,2.5-2.98,3.75-6.19,3.75-9.64,0-2.38-.45-5.27-1.34-8.66-.89-3.39-2.29-6.58-4.2-9.55-1.9-2.98-4.37-5.42-7.41-7.32-3.03-1.9-6.76-2.56-11.16-1.96-2.27.48-4.37,1.79-6.34,3.93-1.96,2.14-3.7,4.91-5.18,8.3-1.49,3.39-2.77,7.29-3.84,11.7-1.07,4.41-1.91,9.23-2.5,14.47-.12,1.31-.21,3.39-.27,6.25-.06,2.86-.09,5.66-.09,8.39Z"/>
  <g>
    <rect class="st3" x="978.72" y="133.34" width="101.28" height="9.26" rx=".59" ry=".59"/>
    <path class="st3" d="M995.73,114.14h-5.3c-2.15,0-3.98,1.6-4.25,3.74l-1.7,13.08h11.25v-16.81Z"/>
    <path class="st3" d="M1063.28,114.14h5.3c2.15,0,3.98,1.6,4.25,3.74l1.7,13.08h-11.25v-16.81Z"/>
    <path class="st3" d="M1036.75,117.87c-.28-2.14-2.1-3.74-4.25-3.74h-6.14c-2.15,0-3.98,1.6-4.25,3.74l-1.7,13.08h18.05l-1.7-13.08Z"/>
    <path class="st3" d="M1029.36,88.48c-5.84,0-11.41,1.18-16.48,3.32-9.35,3.94-16.98,11.13-21.5,20.15h6.54v19h20.28l1.74-13.36c.42-3.22,3.18-5.64,6.42-5.64h6.14c3.24,0,6.01,2.43,6.42,5.64l1.74,13.36h20.28v-19h6.4c-6.97-13.91-21.36-23.47-37.98-23.47Z"/>
  </g>
  <path class="st0" d="M784.73,188.5c-.36,1.43-.27,2.86.27,4.28.54,1.43,1.28,2.8,2.23,4.11,1.07,1.43,2.32,2.8,3.75,4.11v1.43h-18.57c-2.38,0-4.49-.68-6.34-2.06-1.85-1.37-3.07-3.24-3.66-5.63l-20.89-72.68c-1.32-4.64-2.71-8.36-4.2-11.16-1.49-2.8-2.89-4.97-4.2-6.52-1.55-1.79-3.04-3.09-4.46-3.93l-.54-1.43h37.68l.54,1.43c-1.07.84-1.85,2.14-2.32,3.93-.36,1.55-.51,3.72-.44,6.52.06,2.8.74,6.52,2.05,11.16l17.15,60.18,4.29-14.46,13.03-45.72c1.31-4.64,1.7-8.36,1.16-11.16-.54-2.8-1.4-4.97-2.59-6.52-1.43-1.79-3.27-3.09-5.53-3.93l.54-1.43h30.18l-.54,1.43c-2.74.84-5.3,2.14-7.68,3.93-2.14,1.55-4.32,3.72-6.51,6.52-2.2,2.8-3.96,6.52-5.27,11.16l-19.11,66.43Z"/>
  <path class="st0" d="M925.02,201.92c-24.01,0-43.08-7.26-57.2-21.77s-21.18-34.92-21.18-61.23,7.08-45.61,21.23-60.7c14.16-15.09,33.25-22.63,57.26-22.63,6.37,0,12.11.35,17.2,1.08,5.09.71,9.96,1.72,14.62,3,3.66,1.08,7.64,2.55,11.94,4.42,4.29,1.86,7.78,3.47,10.42,4.84v38.16h-4.09c-1.93-1.72-4.37-3.77-7.31-6.18-2.94-2.41-6.27-4.75-9.99-7.04-3.74-2.29-7.84-4.24-12.31-5.86-4.48-1.61-9.16-2.42-14.03-2.42-5.8,0-11.13.91-15.97,2.75-4.84,1.82-9.44,5-13.81,9.51-4.02,4.09-7.3,9.6-9.84,16.55-2.55,6.95-3.83,15.16-3.83,24.62,0,9.97,1.33,18.34,3.99,25.1,2.65,6.78,6.12,12.25,10.42,16.4,4.15,4.02,8.8,6.92,13.92,8.71,5.13,1.79,10.23,2.69,15.33,2.69s10.36-.87,15.16-2.63c4.8-1.76,8.85-3.71,12.15-5.86,3.58-2.22,6.74-4.47,9.46-6.78,2.72-2.29,5.09-4.33,7.09-6.12,1.93-1.46,3.85-2.92,5.78-4.39,2.89,11.76,5.78,23.52,8.67,35.28-3.59,2.25-7.19,4.49-10.78,6.74-2.62,1.3-6.13,2.82-10.21,4.67-3.88,1.76-7.85,3.24-11.94,4.46-5.02,1.51-9.71,2.65-14.08,3.45-4.37.79-10.39,1.18-18.06,1.18Z"/>
  <path class="st0" d="M1051.33,144.9c.14,1.82.31,3.59.31,5.61,0,6.2-.57,11.21-1.72,15.05-1.15,3.83-2.79,7.18-4.91,10.06-2,2.65-4.37,4.62-7.11,5.88s-5.58,1.89-8.5,1.89-5.67-.59-8.37-1.76c-2.7-1.17-5.12-3.13-7.24-5.88-2.08-2.71-3.73-6.06-4.91-10.06-1.2-4.01-1.8-9.05-1.8-15.12,0-2.03.18-3.84.33-5.68h-25.57c-.13,1.89-.4,3.68-.4,5.68,0,15.77,4.25,28.29,12.76,37.57,8.5,9.27,20.21,13.91,35.14,13.91s26.6-4.59,35.15-13.75c8.55-9.17,12.82-21.75,12.82-37.74,0-2-.27-3.79-.4-5.68h-25.56Z"/>
  <path class="st0" d="M277.65,192.6c-7.32,2.99-16.83,5.9-28.52,8.74-11.69,2.84-23.21,4.25-34.57,4.25-26.22,0-47.11-7.56-62.69-22.69-15.57-15.13-23.36-36.58-23.36-64.37,0-26.14,7.79-47.1,23.36-62.86,15.57-15.76,36.88-23.64,63.92-23.64,13.97,0,25.32,1.33,34.06,3.98,8.74,2.65,17.78,6.26,27.12,10.81v39.1h-3.81c-2.02-1.57-4.91-3.79-8.68-6.66-3.78-2.88-7.45-5.32-11.04-7.34-4.18-2.39-9.02-4.44-14.51-6.16-5.49-1.72-11.3-2.58-17.42-2.58-7.17,0-13.71,1.12-19.6,3.36-5.9,2.24-11.17,5.68-15.8,10.31-4.41,4.48-7.9,10.16-10.47,17.03-2.58,6.87-3.87,14.86-3.87,23.98,0,19.5,4.89,33.88,14.67,43.14,9.79,9.26,23.16,13.89,40.12,13.89,1.49,0,3.25-.04,5.27-.11,2.02-.07,3.77-.19,5.27-.34v-32.72h-32.38v-31.26h72.94v82.13Z"/>
  <path class="st0" d="M174.31,197.95c-8.52-4.07-26.3-14.16-36.75-34.53-8.27-16.13-8.6-32.16-8.82-42.76-.21-10.22.89-18.76,2-24.85-10.79,22.4-21.58,44.8-32.36,67.2h-28.57l-30.36-71.37v110.59H0V35.4h48.29l36.97,82.35,36.86-82.35h72.59c-7.91,15.93-16.65,37.76-21.69,64.68-7.75,41.35-3.32,76.17,1.28,97.87Z"/>
  <text class="st1" transform="translate(815.78 200.54)"><tspan x="0" y="0">&amp;</tspan></text>
  <text class="st2" transform="translate(756.8 242.86)"><tspan x="0" y="0">Your Trusted Builder, Since est. 1984</tspan></text>
  <path class="st0" d="M429.34,165.14c1.18,7.41,2.55,13.37,4.11,17.88,1.56,4.52,3.07,8.04,4.55,10.55,1.63,2.96,3.33,5.04,5.11,6.22l.45,2.22-33.1.22c-1.48,0-2.82-.52-4-1.56-1.19-1.03-1.92-2.29-2.22-3.78l-13.99-92.41c-.3-2.22-1.33-4.11-3.11-5.67s-3.78-2.33-6-2.33h-11.11v68.64c0,7.41.44,13.37,1.33,17.88.89,4.52,1.85,8.04,2.89,10.55,1.18,2.96,2.59,5.04,4.22,6.22v2.22h-46.87v-2.22c1.63-1.18,3.03-3.26,4.22-6.22,1.18-2.52,2.18-6.03,3-10.55.82-4.52,1.22-10.47,1.22-17.88v-68.64h-8.44v-5.33h8.44v-18.44c0-7.55-.41-13.59-1.22-18.11-.82-4.52-1.81-8.03-3-10.55-1.19-2.96-2.59-5.03-4.22-6.22v-2.22h51.98c4,0,7.92-.07,11.77-.22,7.25,0,13.14.74,17.66,2.22,4.52,1.48,8.11,3.22,10.77,5.22,2.66,2,4.55,4.11,5.67,6.33,1.11,2.22,1.81,4,2.11,5.33.74,3.55.04,7.22-2.11,11-2.15,3.78-5.11,7.37-8.89,10.77-3.78,3.41-8.14,6.55-13.11,9.44s-9.88,5.22-14.77,7v1.11h17.77c2.37,0,4.44.74,6.22,2.22,1.78,1.48,2.81,3.33,3.11,5.55l9.55,63.53ZM401.79,50.06c-.15-.29-.74-.96-1.78-2-1.04-1.03-2.52-2.11-4.44-3.22-1.93-1.11-4.33-2.15-7.22-3.11-2.89-.96-6.41-1.45-10.55-1.45h-7.77v50.65h2.66c7.55-.74,13.81-2.59,18.77-5.56,4.96-2.96,8.63-6.44,11-10.44,2.37-4,3.48-8.22,3.33-12.66-.15-4.44-1.48-8.51-4-12.22Z"/>
  <path class="st0" d="M170.42,35.4"/>
</svg>