<?xml version="1.0" encoding="UTF-8"?>
<svg id="Navbar" xmlns="http://www.w3.org/2000/svg" version="1.1" viewBox="0 0 829 197.03">
  <!-- Generator: Adobe Illustrator 29.7.1, SVG Export Plug-In . SVG Version: 2.1.1 Build 8)  -->
  <defs>
    <style>
      .st0 {
        font-family: ArialMT, Arial;
        font-size: 15.85px;
      }

      .st0, .st1, .st2, .st3 {
        isolation: isolate;
      }

      .st4, .st2 {
        fill: maroon;
      }

      .st2, .st3 {
        font-family: BerlinSansFB-Bold, 'Berlin Sans FB';
        font-size: 82.29px;
        font-weight: 700;
      }

      .st5 {
        fill: #f0b71a;
      }

      .st3 {
        fill: none;
        stroke: #fff;
        stroke-miterlimit: 10;
        stroke-width: .5px;
      }
    </style>
  </defs>
  <path class="st4" d="M390.52,87.98v27.52c0,4.56.25,8.21.73,10.94s1.05,4.86,1.67,6.37c.62,1.8,1.39,3.04,2.28,3.76v1.34h-17.31c-1.17,0-2.12-.37-2.89-1.14-.76-.76-1.14-1.72-1.14-2.89v-19.33c-.27,1.53-.72,3.58-1.34,6.18-.62,2.59-1.56,5.17-2.83,7.71-1.25,2.54-2.87,4.76-4.84,6.63-1.97,1.87-4.39,2.83-7.24,2.83-3.57,0-6.81-.81-9.66-2.42-2.87-1.61-5.42-3.68-7.65-6.24-2.23-2.54-4.14-5.34-5.7-8.38-1.56-3.04-2.84-5.99-3.82-8.85-.98-2.86-1.7-5.42-2.14-7.65-.45-2.23-.67-3.84-.67-4.84.09-2.14.66-4,1.67-5.57,1.03-1.56,2.33-2.89,3.89-3.97,1.56-1.08,3.31-1.92,5.23-2.54,1.92-.62,3.82-1.03,5.7-1.2,0-2.23.11-4.39.34-6.45.22-2.06.61-4.12,1.14-6.17.45-2.15,1.39-4.18,2.83-6.1s3.2-3.61,5.31-5.03c2.11-1.44,4.43-2.58,6.98-3.42,2.54-.84,5.12-1.28,7.71-1.28s5.31.5,7.85,1.48c2.54.98,4.84,2.58,6.85,4.76,2.01,2.2,3.64,5.07,4.9,8.66,1.25,3.58,1.92,7.91,2.01,13.02h4.84v2.28h-4.7v-.03ZM373.88,87.98h-15.97c-1.25.09-2.59.34-4.03.73-1.44.41-2.75,1.03-3.97,1.87-1.2.86-2.22,2-3.01,3.42s-1.2,3.22-1.2,5.37c0,1.44.3,3.36.87,5.78s1.39,5,2.42,7.71c1.03,2.73,2.22,5.46,3.56,8.18,1.34,2.73,2.78,5.17,4.29,7.32,1.34,1.8,3.04,2.69,5.1,2.69,1.25,0,2.47-.36,3.62-1.08s2.01-1.75,2.54-3.09c1.34-3.48,2.64-7.29,3.89-11.41,1.25-4.11,1.87-8.23,1.87-12.35v-15.17.03ZM346.37,80.73c-.27,1.44-.27,3.18,0,5.23.98-.09,2.11-.16,3.36-.2,1.25-.05,2.64-.06,4.17-.06h20v-3.76c0-2.33-.41-4.4-1.2-6.24-.81-1.83-1.84-3.37-3.09-4.64-1.25-1.25-2.7-2.22-4.36-2.89s-3.37-1.01-5.17-1.01c-3.04,0-5.89,1.08-8.52,3.22-2.64,2.14-4.37,5.59-5.17,10.33l-.02.03Z"/>
  <path class="st4" d="M401.4,62.61c1.97-.45,3.89-.84,5.78-1.2,1.7-.36,3.51-.66,5.43-.87,1.92-.22,3.64-.34,5.17-.34s2.75.16,3.68.47c.94.31,1.41.83,1.41,1.55v69.8c0,3.67-.05,7.7-.14,12.08s-.37,8.68-.87,12.88c-.5,4.22-1.3,8.07-2.42,11.61s-2.7,6.29-4.76,8.26c-2.33,2.33-4.92,4.15-7.79,5.51-2.87,1.34-5.84,2.37-8.93,3.09-3.09.72-6.21,1.19-9.4,1.41-3.18.22-6.32.34-9.46.34s-5.78-.14-8.18-.41c-2.42-.27-3.67-.76-3.76-1.47l-2.01-23.23c.53,3.4,1.51,6.51,2.95,9.34,1.44,2.81,3.17,5.23,5.23,7.24s4.31,3.56,6.78,4.64,4.9,1.61,7.32,1.61c4.03,0,7.27-1.08,9.73-3.22,2.47-2.15,4.34-4.81,5.64-7.99s2.17-6.6,2.62-10.27c.45-3.67.72-7.07.81-10.21.09-1.61.16-3.81.2-6.57.05-2.78.06-5.9.06-9.4s-.03-7.2-.06-11.15c-.05-3.93-.06-7.82-.06-11.68,0-9.13-.05-18.92-.14-29.4,0-4.56-.25-8.21-.73-10.94-.5-2.73-1.05-4.86-1.67-6.37-.72-1.8-1.51-3.04-2.42-3.76v-1.34h.02ZM413.48,51.6c-2.78,0-5.1-.69-6.98-2.08s-2.83-3.06-2.83-5.03.94-3.78,2.83-5.17c1.87-1.39,4.2-2.08,6.98-2.08s4.96.7,6.85,2.08c1.87,1.39,2.83,3.11,2.83,5.17s-.94,3.65-2.83,5.03c-1.87,1.39-4.15,2.08-6.85,2.08Z"/>
  <path class="st4" d="M451.47,105.7c-1.44.72-2.5,1.76-3.22,3.15-.72,1.39-.94,2.89-.67,4.5.27,1.8.73,4.04,1.41,6.78s1.59,5.37,2.75,7.91,2.62,4.75,4.36,6.57c1.75,1.83,3.82,2.75,6.24,2.75.72,0,1.92-.2,3.62-.61s3.51-1.45,5.43-3.15,3.78-4.29,5.57-7.79c1.8-3.48,3.14-8.32,4.03-14.49h1.61c-.53,5.2-1.65,9.88-3.36,14.1-.72,1.8-1.59,3.56-2.62,5.31s-2.26,3.31-3.7,4.7c-1.44,1.39-3.06,2.54-4.9,3.48-1.83.94-3.97,1.45-6.37,1.55-4.22,0-8.16-1.2-11.88-3.62-3.72-2.42-6.99-5.62-9.87-9.6s-5.23-8.51-7.12-13.55c-1.87-5.06-3.11-10.19-3.68-15.44-.58-5.23-.47-10.38.34-15.44.81-5.06,2.48-9.57,5.03-13.55s6.06-7.18,10.54-9.6c4.46-2.42,10.02-3.62,16.64-3.62,2.86.19,5.28.31,7.24.41s3.67.14,5.1.14c2.33,0,3.93-.17,4.84-.53.89-.36,1.48-.89,1.75-1.61h2.01v25.23c0,2.59-1.17,5.2-3.48,7.79-2.33,2.59-5.12,5.06-8.38,7.38-3.26,2.33-6.67,4.43-10.21,6.31-3.53,1.87-6.56,3.4-9.05,4.56h0ZM446.5,99.26c0,1.25.41,2.23,1.2,2.95.81.72,1.75,1.08,2.83,1.08.72,0,1.34-.14,1.87-.41,2.15-1.16,4.71-2.53,7.71-4.09s5.84-3.31,8.52-5.23,4.96-4,6.84-6.24,2.83-4.65,2.83-7.24c0-1.8-.34-3.97-1.01-6.51s-1.72-4.95-3.15-7.18c-1.44-2.23-3.29-4.07-5.57-5.51-2.28-1.44-5.07-1.92-8.38-1.48-1.7.36-3.29,1.34-4.76,2.95-1.48,1.61-2.78,3.68-3.89,6.24-1.12,2.54-2.08,5.48-2.89,8.79-.81,3.31-1.44,6.93-1.87,10.88-.09.98-.16,2.54-.2,4.7-.05,2.15-.06,4.25-.06,6.31Z"/>
  <path class="st4" d="M510.79,105.7c-1.44.72-2.5,1.76-3.22,3.15-.72,1.39-.94,2.89-.67,4.5.27,1.8.73,4.04,1.41,6.78s1.59,5.37,2.75,7.91,2.62,4.75,4.36,6.57c1.75,1.83,3.82,2.75,6.24,2.75.72,0,1.92-.2,3.62-.61s3.51-1.45,5.43-3.15,3.78-4.29,5.57-7.79c1.8-3.48,3.14-8.32,4.03-14.49h1.61c-.53,5.2-1.65,9.88-3.36,14.1-.72,1.8-1.59,3.56-2.62,5.31s-2.26,3.31-3.7,4.7c-1.44,1.39-3.06,2.54-4.9,3.48-1.83.94-3.97,1.45-6.37,1.55-4.22,0-8.16-1.2-11.88-3.62-3.72-2.42-7.01-5.62-9.87-9.6-2.86-3.98-5.23-8.51-7.12-13.55-1.87-5.06-3.11-10.19-3.68-15.44-.58-5.23-.47-10.38.33-15.44.81-5.06,2.48-9.57,5.03-13.55s6.06-7.18,10.54-9.6c4.46-2.42,10.02-3.62,16.64-3.62,2.86.19,5.28.31,7.24.41s3.67.14,5.1.14c2.33,0,3.93-.17,4.84-.53.89-.36,1.48-.89,1.75-1.61h2.01v25.23c0,2.59-1.17,5.2-3.48,7.79-2.33,2.59-5.12,5.06-8.38,7.38-3.26,2.33-6.67,4.43-10.21,6.31s-6.56,3.4-9.05,4.56h.02ZM505.82,99.26c0,1.25.41,2.23,1.2,2.95.81.72,1.75,1.08,2.83,1.08.72,0,1.34-.14,1.87-.41,2.15-1.16,4.71-2.53,7.71-4.09s5.84-3.31,8.52-5.23,4.96-4,6.84-6.24c1.87-2.23,2.83-4.65,2.83-7.24,0-1.8-.34-3.97-1.01-6.51s-1.72-4.95-3.15-7.18c-1.44-2.23-3.29-4.07-5.57-5.51-2.28-1.44-5.07-1.92-8.38-1.48-1.7.36-3.29,1.34-4.76,2.95-1.48,1.61-2.78,3.68-3.89,6.24-1.12,2.54-2.08,5.48-2.89,8.79-.81,3.31-1.44,6.93-1.87,10.88-.09.98-.16,2.54-.2,4.7-.05,2.15-.06,4.25-.06,6.31Z"/>
  <g>
    <rect class="st5" x="735.67" y="85.99" width="76.12" height="6.96" rx=".59" ry=".59"/>
    <path class="st5" d="M748.44,71.55h-3.98c-1.62,0-2.98,1.2-3.2,2.81l-1.28,9.84h8.46v-12.65Z"/>
    <path class="st5" d="M799.23,71.55h3.98c1.62,0,2.98,1.2,3.2,2.81l1.28,9.84h-8.46v-12.65Z"/>
    <path class="st5" d="M779.29,74.36c-.2-1.61-1.58-2.81-3.2-2.81h-4.62c-1.62,0-2.98,1.2-3.2,2.81l-1.28,9.84h13.57l-1.28-9.84h.02Z"/>
    <path class="st5" d="M773.73,52.27c-4.39,0-8.59.89-12.38,2.5-7.03,2.97-12.77,8.37-16.16,15.14h4.92v14.28h15.24l1.31-10.04c.31-2.42,2.39-4.25,4.82-4.25h4.62c2.44,0,4.51,1.83,4.82,4.25l1.31,10.04h15.25v-14.28h4.81c-5.25-10.46-16.05-17.64-28.55-17.64h-.02Z"/>
  </g>
  <path class="st4" d="M589.85,127.44c-.27,1.08-.2,2.15.2,3.22.41,1.08.95,2.11,1.67,3.09.81,1.08,1.75,2.11,2.83,3.09v1.08h-13.96c-1.8,0-3.37-.52-4.76-1.55-1.39-1.03-2.31-2.44-2.75-4.23l-15.71-54.62c-.98-3.5-2.05-6.29-3.15-8.38-1.12-2.11-2.17-3.73-3.15-4.9-1.17-1.34-2.28-2.33-3.36-2.95l-.41-1.08h28.32l.41,1.08c-.81.62-1.39,1.61-1.75,2.95-.27,1.17-.37,2.79-.33,4.9s.56,4.9,1.55,8.38l12.9,45.23,3.22-10.87,9.8-34.36c.98-3.5,1.28-6.29.87-8.38-.41-2.11-1.05-3.73-1.95-4.9-1.08-1.34-2.47-2.33-4.15-2.95l.41-1.08h22.68l-.41,1.08c-2.06.62-3.98,1.61-5.78,2.95-1.61,1.17-3.25,2.79-4.9,4.9-1.65,2.11-2.98,4.9-3.97,8.38l-14.36,49.94-.02-.02Z"/>
  <path class="st4" d="M695.3,137.53c-18.05,0-32.38-5.45-42.99-16.36-10.62-10.91-15.92-26.24-15.92-46.02s5.32-34.28,15.95-45.62c10.65-11.33,24.99-17.02,43.04-17.02,4.79,0,9.1.27,12.93.81,3.82.53,7.48,1.3,10.99,2.26,2.75.81,5.74,1.92,8.98,3.33,3.23,1.41,5.84,2.61,7.84,3.64v28.68h-3.08c-1.45-1.3-3.28-2.84-5.5-4.65-2.2-1.81-4.71-3.58-7.51-5.29-2.81-1.72-5.89-3.18-9.26-4.4-3.37-1.2-6.88-1.81-10.55-1.81-4.36,0-8.37.69-12.01,2.06-3.64,1.37-7.09,3.76-10.38,7.15-3.01,3.08-5.48,7.21-7.4,12.44-1.92,5.23-2.87,11.4-2.87,18.52,0,7.49,1,13.78,3,18.87,1.98,5.09,4.61,9.21,7.84,12.33,3.12,3.01,6.62,5.2,10.46,6.56,3.86,1.34,7.7,2.01,11.52,2.01s7.79-.66,11.4-1.98,6.65-2.79,9.13-4.4c2.7-1.67,5.06-3.36,7.12-5.09,2.05-1.72,3.82-3.26,5.34-4.61,1.45-1.09,2.89-2.2,4.34-3.29,2.17,8.84,4.34,17.67,6.51,26.52-2.7,1.69-5.4,3.37-8.1,5.06-1.97.98-4.61,2.12-7.68,3.51-2.92,1.33-5.9,2.44-8.98,3.36-3.78,1.14-7.31,1.98-10.58,2.59-3.28.59-7.81.89-13.58.89l.02-.05Z"/>
  <path class="st4" d="M790.25,94.67c.11,1.36.23,2.7.23,4.22,0,4.65-.44,8.43-1.3,11.32-.86,2.87-2.11,5.4-3.7,7.57-1.5,2-3.28,3.47-5.35,4.42s-4.2,1.42-6.39,1.42-4.26-.44-6.29-1.33-3.84-2.36-5.45-4.42c-1.56-2.03-2.79-4.56-3.7-7.57s-1.36-6.81-1.36-11.37c0-1.53.14-2.89.25-4.26h-19.22c-.09,1.42-.3,2.76-.3,4.26,0,11.85,3.2,21.26,9.59,28.24,6.39,6.98,15.19,10.46,26.41,10.46s20-3.45,26.41-10.33c6.42-6.9,9.63-16.35,9.63-28.37,0-1.5-.2-2.84-.3-4.26h-19.2.02Z"/>
  <path class="st4" d="M208.69,130.53c-5.51,2.25-12.65,4.43-21.43,6.57s-17.45,3.2-25.98,3.2c-19.7,0-35.41-5.68-47.12-17.05-11.71-11.37-17.56-27.49-17.56-48.38,0-19.65,5.85-35.41,17.56-47.24,11.69-11.88,27.71-17.8,48.04-17.8,10.51,0,19.03,1,25.6,3,6.57,2,13.36,4.7,20.39,8.13v29.4h-2.86c-1.51-1.19-3.7-2.84-6.53-5.01-2.84-2.15-5.6-4-8.31-5.51-3.14-1.8-6.78-3.34-10.91-4.64-4.12-1.3-8.49-1.94-13.1-1.94-5.39,0-10.3.84-14.74,2.53-4.43,1.69-8.4,4.26-11.88,7.74-3.31,3.37-5.93,7.63-7.87,12.8s-2.9,11.18-2.9,18.02c0,14.66,3.68,25.46,11.04,32.42s17.41,10.44,30.15,10.44c1.12,0,2.45-.03,3.97-.08s2.83-.14,3.97-.25v-24.59h-24.34v-23.5h54.83v61.73l-.02-.02Z"/>
  <path class="st4" d="M131.03,134.55c-6.4-3.06-19.76-10.65-27.62-25.95-6.21-12.11-6.46-24.17-6.63-32.14-.16-7.68.67-14.1,1.5-18.67-8.1,16.84-16.22,33.67-24.32,50.52h-21.48l-22.82-53.64v83.13H0V12.37h36.3l27.79,61.9,27.71-61.9h54.56c-5.95,11.97-12.52,28.38-16.31,48.61-5.82,31.08-2.5,57.25.97,73.56h.02Z"/>
  <g class="st1">
    <text class="st2" transform="translate(613.18 136.51)"><tspan x="0" y="0">&amp;</tspan></text>
    <text class="st3" transform="translate(613.18 136.51)"><tspan x="0" y="0">&amp;</tspan></text>
  </g>
  <g class="st1">
    <text class="st0" transform="translate(568.85 168.31)"><tspan x="0" y="0">Your Trusted Builder, Since est. 1984</tspan></text>
  </g>
  <path class="st4" d="M322.72,109.88c.89,5.57,1.92,10.05,3.09,13.44,1.17,3.4,2.31,6.04,3.42,7.93,1.22,2.23,2.5,3.79,3.84,4.68l.34,1.67-24.88.17c-1.11,0-2.12-.39-3.01-1.17-.89-.78-1.45-1.72-1.67-2.84l-10.52-69.47c-.22-1.67-1-3.09-2.34-4.26s-2.84-1.75-4.51-1.75h-8.35v51.6c0,5.57.33,10.05,1,13.44.67,3.4,1.39,6.04,2.17,7.93.89,2.23,1.95,3.79,3.17,4.68v1.67h-35.23v-1.67c1.22-.89,2.28-2.45,3.17-4.68.89-1.89,1.64-4.54,2.25-7.93s.92-7.87.92-13.44v-51.6h-6.34v-4.01h6.34v-13.86c0-5.68-.31-10.21-.92-13.61-.61-3.39-1.36-6.04-2.25-7.93-.89-2.23-1.95-3.78-3.17-4.68v-1.67h39.08c3,0,5.95-.06,8.85-.17,5.45,0,9.88.56,13.27,1.67,3.39,1.11,6.09,2.42,8.1,3.92,2,1.5,3.42,3.09,4.26,4.76.83,1.67,1.36,3,1.58,4.01.56,2.67.03,5.43-1.58,8.26-1.61,2.84-3.84,5.54-6.68,8.1-2.84,2.56-6.12,4.92-9.85,7.1s-7.43,3.92-11.1,5.26v.83h13.36c1.78,0,3.34.56,4.68,1.67s2.11,2.5,2.34,4.17l7.18,47.76v.03ZM302.02,23.39c-.11-.22-.56-.72-1.34-1.5s-1.89-1.59-3.34-2.42c-1.45-.84-3.26-1.61-5.43-2.34-2.17-.72-4.82-1.09-7.93-1.09h-5.84v38.08h2c5.68-.56,10.38-1.95,14.11-4.18s6.48-4.84,8.26-7.85c1.78-3,2.62-6.18,2.5-9.52-.11-3.34-1.11-6.4-3-9.18l.02.02Z"/>
</svg>