<?xml version="1.0" encoding="UTF-8"?>
<svg id="Color_Logo" xmlns="http://www.w3.org/2000/svg" version="1.1" xmlns:xlink="http://www.w3.org/1999/xlink" viewBox="0 0 1080 1080">
  <!-- Generator: Adobe Illustrator 29.7.1, SVG Export Plug-In . SVG Version: 2.1.1 Build 8)  -->
  <defs>
    <style>
      .st0 {
        fill: #fff;
      }

      .st1 {
        fill: #231f20;
      }

      .st2 {
        fill: url(#linear-gradient);
      }
    </style>
    <linearGradient id="linear-gradient" x1="-160.01" y1="1244.36" x2="1235.63" y2="-155.96" gradientTransform="translate(0 1082) scale(1 -1)" gradientUnits="userSpaceOnUse">
      <stop offset="0" stop-color="#ffca06"/>
      <stop offset=".9" stop-color="#f47a20"/>
    </linearGradient>
  </defs>
  <rect class="st2" width="1080" height="1080" rx="100.2" ry="100.2"/>
  <g>
    <g id="Title">
      <path class="st0" d="M287.08,852.63l-2.95,5.89h-7.48c-5.21,0-8.95-5.1-8.95-11.67s3.85-11.22,8.95-11.22h10.42l-2.95,6h-7.48c-2.49,0-4.42,2.27-4.42,5.55s1.93,5.44,4.42,5.44h10.65-.23Z"/>
      <path class="st0" d="M309.96,835.63l-8.95,15.29v7.48h-4.64v-7.59l-9.06-15.29h5.89l3.63,6.34c.57.91,1.7,2.95,2.04,3.63.23-.68.79-1.59,1.93-3.63l3.4-6.34h5.78v.11Z"/>
      <path class="st0" d="M328.77,851.83c0,3.74-1.36,6.68-6.12,6.68h-13.14v-13.93h13.14c.68,0,1.25-.34,1.25-1.59s-.68-1.47-1.25-1.47h-13.14l3.06-6h9.86c3.63,0,5.89,2.15,5.89,6.34s-1.02,4.19-2.04,4.76c1.25.57,2.27,2.38,2.27,5.1h0l.23.11ZM314.16,849.45v3.17h8.5c1.02,0,1.47-.57,1.47-1.59s-.45-1.59-1.47-1.59h-8.5Z"/>
      <path class="st0" d="M348.26,852.63l-2.95,5.89h-14.39v-22.88h17.33l-2.95,6h-9.63v2.72h11.78l-2.61,5.21h-9.18v3.06h12.8-.23Z"/>
      <path class="st0" d="M371.03,858.52h-6.12l-3.29-6.12h-7.14v6.12h-4.64v-11.67h13.03c1.36,0,2.49-.91,2.61-2.27v-.23c0-1.81-.91-2.61-2.61-2.61h-12.92l2.95-6h9.63c3.4,0,7.7,1.59,7.7,8.16s-1.47,6.46-3.97,7.25c.79.91,1.47,1.93,2.15,2.95l2.72,4.42h-.11Z"/>
      <path class="st0" d="M395.04,844.81c3.63,0,5.55,2.04,5.55,6.23s-1.93,7.48-6.46,7.48h-13.82l2.95-5.89h11.33c1.13,0,1.59-.57,1.59-1.7s-.57-1.59-1.59-1.59h-8.16c-3.85,0-5.55-2.61-5.55-6.57s1.93-7.14,6.46-7.14h12.92l-2.95,6h-10.31c-1.02,0-1.59.45-1.59,1.59s.57,1.59,1.59,1.59h8.16-.11Z"/>
      <path class="st0" d="M415.1,852.63h-7.82v5.78h-4.64v-11.67h12.8c1.47,0,2.27-1.02,2.27-2.61s-.91-2.61-2.27-2.61h-12.8l3.06-6h9.4c4.64,0,7.25,3.51,7.25,8.61s-2.72,8.5-7.36,8.5h.11Z"/>
      <path class="st0" d="M427.56,858.52l2.83-5.89h6.46c-.45-.91-1.02-2.27-1.59-3.29l-2.61-6.12-7.02,15.18h-5.44l9.63-20.73c.57-1.36,1.59-2.61,2.95-2.61s2.27,1.13,2.95,2.61l9.29,20.73h-17.33l-.11.11Z"/>
      <path class="st0" d="M463.25,852.63l-2.95,5.89h-7.48c-5.1,0-8.95-5.1-8.95-11.67s3.85-11.22,8.95-11.22h10.42l-2.95,6h-7.48c-2.49,0-4.42,2.27-4.42,5.55s1.93,5.44,4.42,5.44h10.65-.23Z"/>
      <path class="st0" d="M482.05,852.63l-2.95,5.89h-14.39v-22.88h17.33l-2.95,6h-9.63v2.72h11.78l-2.61,5.21h-9.18v3.06h12.8-.23Z"/>
      <path class="st0" d="M502.33,858.52h-9.97v-14.27h4.64v8.38h5.44c2.61,0,4.42-2.27,4.42-5.44s-1.93-5.55-4.42-5.55h-9.97l2.95-6h7.02c5.21,0,8.95,4.64,8.95,11.22s-3.85,11.67-8.95,11.67h-.11Z"/>
      <path class="st0" d="M518.3,858.52h-4.64v-22.88h4.64v22.88Z"/>
      <path class="st0" d="M530.31,844.24h9.63v14.27h-10.31c-5.1,0-8.95-5.1-8.95-11.67s3.85-11.22,8.95-11.22h10.65l-2.95,6h-7.7c-2.49,0-4.42,2.27-4.42,5.55s1.81,5.44,4.42,5.44h5.66v-3.29h-7.7l2.83-5.1h-.11Z"/>
      <path class="st0" d="M547.19,858.52h-4.64v-22.88h4.64v22.88Z"/>
      <path class="st0" d="M568.61,835.63l-2.95,6h-5.32v16.99h-4.64v-16.99h-7.02l2.95-6h16.99Z"/>
      <path class="st0" d="M571.55,858.52l2.72-5.89h6.46c-.45-.91-1.02-2.27-1.59-3.29l-2.61-6.12-7.02,15.18h-5.44l9.63-20.73c.57-1.36,1.59-2.61,2.95-2.61s2.27,1.13,2.95,2.61l9.29,20.73h-17.33v.11Z"/>
      <path class="st0" d="M606.78,852.63l-2.95,5.89h-13.14v-22.88h4.64v16.99h11.56-.11Z"/>
    </g>
    <g id="csd">
      <g id="d">
        <path class="st0" d="M781.82,459.39v198.26c0,49.51-39.31,87.57-92.79,87.57s-90.97-36.71-90.97-87.57v-106.15h139.46v-91.99h-237.34v198.26c0,4.42.23,8.72.45,13.03l-164.5-.23c3.97-43.84,1.81-88.14-6.46-131.53-10.76-56.53-23.9-124.85-79.76-162.69-15.41-10.31-32.63-17.67-50.64-21.53l1.13,267.25c1.25,24.02,7.02,71.03,38.63,116.8,12.46,18.13,27.08,38.97,59.36,57.44,24.24,13.82,70.35,18.58,80.89,18.69,51.21.45,125.64,2.61,221.71.79,27.42,13.14,59.02,20.39,93.12,20.39,109.89,0,186.7-74.77,186.7-178.32v-139.91l-99.02-58.46h0v-.11Z"/>
        <path class="st0" d="M565.55,289.8c15.86-27.19,16.77-54.38,16.09-68.31l-199.39,3.97c-12.35,1.59-58.12,9.29-93.69,49.51-27.76,31.49-34.33,65.82-36.14,79.76l200.75-2.15c6.23,0,78.17-4.31,112.38-62.88h0v.11Z"/>
        <path class="st1" d="M450.1,637.71c-4.42,9.52-5.78,20.39-3.97,32.63v.68l7.14-.45c0-.34-.23-.91-.34-1.59-2.95-14.84,3.06-27.42,4.42-30.25,8.16-16.2,23.11-22.54,28.1-24.58,4.64-1.93,9.63-3.17,14.5-3.63v-6.68c-5.89.45-11.67,1.81-17.22,3.85-4.53,1.81-23.34,9.63-32.74,29.91h0l.11.11Z"/>
        <path class="st1" d="M679.4,602.03c-.91-1.7-2.95-2.38-4.76-1.59s-1.47,1.13-1.7,1.93c-6.68,18.24-18.69,27.3-35.8,27.08,1.25-5.55,2.15-11.22,2.61-16.88,0-.79,0-1.59.23-2.27.23-2.95.45-5.78.45-8.72v-7.36c0-1.25-.23-2.49-.23-3.63-.23-2.95-.57-5.89-1.13-8.84-.23-.68-.23-1.36-.45-2.04-.23-1.25-.45-2.49-.91-3.63-.23-.57-.34-1.13-.45-1.59-.23-.57-.45-1.25-.57-1.7-.23-1.25-.57-2.27-1.02-3.4-.45-1.02-.91-1.93-1.25-2.83-.91-2.38-2.04-4.76-3.29-6.8-.91-1.59-1.7-2.95-2.61-4.53-.68-.91-1.36-1.81-2.04-2.72-.34-.45-.57-.91-.91-1.25-8.61-9.97-16.77-17.11-24.36-21.41-8.72-5.21-17.9-9.86-27.3-13.71-5.32-2.27-10.99-4.42-16.99-6.68-5.89-2.04-12.01-4.19-18.24-6.46-12.24-3.97-23.68-10.08-33.87-18.01-4.64-3.74-8.38-8.61-10.99-13.93-2.49-5.44-3.63-11.33-3.4-17.33.23-6.12,1.25-12.01,3.06-17.9,2.04-5.44,4.76-10.65,8.16-15.41,7.02-9.18,14.5-15.75,22.77-19.71,8.04-3.97,14.61-6.12,19.83-6.8,1.36-.34,2.72-.45,4.19-.57.57,0,1.13,0,1.59-.23l2.04-.23c12.8,0,22.54,3.97,29.12,11.78,9.06,11.22,11.22,31.61,7.48,54.15h6.8c4.31-24.7,1.59-45.66-8.95-58.46-8.04-9.63-19.49-14.39-34.44-14.39h-3.97c-1.59,0-3.17,0-4.76.23-5.78.23-13.48,2.15-22.88,5.89-9.63,3.97-18.81,10.99-27.76,21.07-4.42,5.44-8.04,11.33-10.88,17.79-2.95,6.91-4.76,14.16-5.32,21.75-.79,8.16.34,16.31,3.29,23.9,3.06,7.7,7.82,14.5,13.93,20.17,12.35,10.54,24.92,18.35,38.18,23.22,2.38,1.02,4.76,1.93,7.02,2.83,3.74,1.59,7.48,2.95,10.99,4.42,5.78,2.27,10.99,4.76,15.86,6.91,8.38,3.74,16.54,8.04,24.36,12.8,6.57,3.74,13.14,9.18,19.6,16.2l.91,1.02c.57.57.91,1.13,1.36,1.59l1.93,3.06c.91,1.25,1.7,2.72,2.27,4.31.45.91.79,1.59,1.25,2.49,2.04,5.21,3.4,10.65,4.08,16.2.23,1.59.45,3.06.57,4.64s.23,3.06.23,4.76c0,2.49.23,4.98,0,7.48v2.27c-.23,5.78-.79,11.33-1.93,16.99-3.63-.57-7.36-1.36-11.1-2.15s-7.48-1.59-11.1-2.61v7.14c3.29.79,6.68,1.59,10.2,2.27,3.51.79,7.02,1.36,10.42,2.04-1.59,5.78-3.74,11.33-6.34,16.77-2.38,5.1-5.32,9.97-8.61,14.5-1.7,2.38-3.29,4.42-4.64,5.89.57,3.85,1.25,7.59,2.38,11.33.45,1.36.91,2.61,1.25,3.85,4.31-3.97,8.27-8.16,12.01-12.8,9.18-11.44,16.09-24.47,20.39-38.52,21.19,1.25,35.91-9.52,44.41-31.95.23-.91.23-1.81-.23-2.61l-.23.23.23.68Z"/>
      </g>
    </g>
  </g>
</svg>