<?xml version="1.0" standalone="no"?>
<!DOCTYPE svg PUBLIC "-//W3C//DTD SVG 20010904//EN"
 "http://www.w3.org/TR/2001/REC-SVG-20010904/DTD/svg10.dtd">
<svg version="1.0" xmlns="http://www.w3.org/2000/svg"
 width="2250.000000pt" height="2250.000000pt" viewBox="0 0 2250.000000 2250.000000"
 preserveAspectRatio="xMidYMid meet">
<metadata>
Created by potrace 1.14, written by Peter Selinger 2001-2017
</metadata>
<g transform="translate(0.000000,2250.000000) scale(0.100000,-0.100000)"
fill="#000000" stroke="none">
<path d="M10809 22495 c-2 -2 -69 -6 -149 -9 -80 -4 -163 -8 -185 -11 -22 -2
-85 -7 -139 -10 -55 -4 -109 -9 -120 -10 -12 -2 -52 -7 -91 -10 -38 -3 -88 -8
-110 -10 -22 -3 -60 -7 -85 -10 -25 -2 -61 -6 -80 -9 -19 -3 -51 -7 -70 -10
-73 -10 -180 -24 -229 -32 -87 -12 -395 -67 -504 -89 -67 -13 -133 -26 -147
-29 -14 -3 -36 -8 -50 -11 -14 -3 -38 -8 -53 -11 -105 -19 -624 -156 -837
-221 -279 -84 -797 -269 -975 -348 -16 -7 -91 -39 -165 -70 -134 -56 -154 -66
-320 -143 -139 -64 -361 -174 -422 -209 -32 -17 -58 -30 -58 -27 0 3 -17 -7
-37 -21 -21 -14 -41 -25 -45 -25 -20 0 -556 -313 -747 -437 -173 -112 -490
-328 -518 -352 -7 -6 -27 -21 -45 -34 -103 -70 -619 -475 -648 -508 -3 -3 -57
-50 -120 -105 -115 -99 -135 -117 -299 -269 -293 -272 -748 -756 -981 -1044
-19 -23 -43 -53 -54 -64 -50 -59 -274 -348 -368 -477 -353 -484 -669 -999
-942 -1534 -120 -236 -276 -571 -276 -592 0 -8 -4 -14 -10 -14 -5 0 -10 -6
-10 -14 0 -7 -12 -40 -26 -72 -63 -144 -62 -141 -127 -309 -80 -204 -237 -648
-252 -713 -3 -9 -32 -109 -65 -221 -59 -202 -104 -371 -155 -586 -39 -166 -44
-190 -51 -232 -3 -21 -8 -41 -10 -44 -2 -4 -6 -24 -10 -44 -7 -44 -7 -48 -34
-180 -11 -55 -22 -116 -25 -135 -3 -19 -8 -48 -11 -65 -2 -16 -9 -55 -14 -85
-5 -30 -12 -75 -15 -100 -3 -25 -8 -56 -10 -70 -2 -14 -7 -45 -10 -70 -4 -25
-8 -56 -10 -70 -2 -14 -6 -47 -10 -75 -3 -27 -8 -61 -10 -75 -2 -14 -6 -56
-10 -95 -5 -68 -9 -101 -19 -195 -3 -25 -8 -88 -11 -140 -4 -52 -8 -109 -10
-126 -27 -227 -27 -1308 0 -1543 2 -20 6 -81 10 -136 3 -55 8 -111 10 -125 2
-14 6 -61 10 -105 4 -44 8 -87 10 -95 1 -8 6 -46 9 -85 4 -38 9 -77 11 -85 2
-8 6 -40 10 -71 3 -31 7 -65 9 -75 3 -18 10 -68 22 -154 3 -19 9 -60 14 -90 5
-30 12 -73 15 -95 4 -22 8 -49 10 -60 6 -32 64 -338 70 -365 3 -14 8 -36 11
-50 3 -14 12 -54 20 -90 9 -36 18 -76 20 -90 3 -14 21 -88 40 -165 290 -1161
736 -2218 1365 -3233 109 -175 378 -576 390 -580 5 -2 9 -8 9 -12 0 -5 35 -56
77 -112 43 -57 87 -117 99 -133 11 -17 28 -39 36 -50 9 -11 82 -102 162 -203
81 -100 157 -195 170 -210 13 -15 54 -63 92 -107 38 -44 80 -92 94 -106 14
-14 36 -40 50 -56 127 -154 659 -688 859 -862 10 -9 49 -44 87 -77 38 -34 105
-91 149 -128 44 -37 91 -77 105 -90 35 -31 303 -244 375 -297 33 -24 66 -49
75 -56 28 -22 158 -118 180 -133 12 -8 47 -33 78 -56 85 -61 402 -271 522
-346 303 -189 632 -372 955 -532 213 -105 277 -135 540 -251 327 -144 880
-345 1240 -450 50 -15 118 -35 153 -45 67 -20 479 -126 522 -134 14 -2 66 -13
115 -25 50 -11 101 -22 115 -25 67 -13 241 -47 285 -56 80 -15 259 -45 335
-55 25 -3 56 -8 70 -10 63 -11 128 -20 220 -30 30 -3 66 -8 80 -10 14 -2 54
-7 90 -10 36 -3 81 -8 100 -10 19 -2 64 -7 100 -10 36 -3 90 -8 120 -11 30 -3
89 -7 130 -9 41 -2 127 -8 190 -12 246 -15 1193 -8 1362 11 18 3 76 7 128 11
52 3 111 8 130 10 19 2 64 7 100 10 112 11 232 24 270 30 14 2 50 7 80 10 30
3 82 10 115 15 33 5 78 12 100 15 80 12 102 16 215 36 63 11 126 22 140 24 35
5 317 62 392 80 35 8 74 16 88 19 14 3 40 9 58 15 17 5 32 8 32 6 0 -3 11 0
25 5 14 5 36 12 48 14 12 2 60 14 107 26 47 12 92 23 101 25 28 6 358 102 479
140 572 179 1163 420 1710 698 167 85 319 165 335 177 6 4 35 21 65 37 30 16
97 54 148 84 52 30 112 65 135 78 23 13 68 41 100 63 32 21 60 38 62 38 4 0
145 90 325 209 52 34 193 131 215 148 6 5 42 30 80 58 230 162 741 567 876
695 8 8 38 35 65 59 266 238 658 627 864 860 36 41 76 86 90 101 260 288 695
854 921 1200 417 636 704 1169 980 1815 33 77 67 154 75 172 8 17 14 34 14 38
0 4 6 21 14 38 64 142 309 844 332 952 1 6 20 73 42 150 71 243 154 588 198
813 2 12 6 32 8 45 3 12 10 47 15 77 6 30 13 66 16 80 7 38 24 131 30 170 3
19 8 48 11 63 3 16 7 38 8 50 2 12 6 40 9 62 4 22 9 60 12 85 4 25 8 56 10 70
4 29 13 91 20 153 3 23 8 58 10 77 3 19 7 62 10 95 3 33 8 76 10 95 4 34 9 84
21 220 21 238 29 496 29 915 0 365 -5 573 -20 770 -13 177 -16 224 -20 260
-14 135 -17 164 -20 200 -2 22 -7 60 -10 85 -3 25 -8 65 -11 90 -3 25 -7 56
-10 70 -2 14 -6 50 -10 80 -3 30 -7 62 -9 70 -2 8 -7 35 -10 60 -8 60 -15 105
-40 250 -9 52 -18 97 -20 100 -1 3 -6 28 -9 55 -4 28 -9 57 -11 65 -2 8 -6 26
-9 40 -4 23 -33 166 -41 200 -2 8 -11 48 -19 89 -9 41 -26 111 -37 155 -12 45
-22 89 -24 98 -6 27 -75 290 -85 323 -6 17 -33 107 -61 200 -104 350 -289 865
-385 1073 -13 29 -24 55 -24 57 0 3 -10 27 -21 53 -12 26 -27 61 -35 78 -296
677 -675 1345 -1112 1964 -85 120 -309 422 -353 475 -10 11 -72 88 -140 170
-249 306 -437 512 -744 820 -189 188 -314 307 -480 454 -102 91 -117 104 -225
195 -58 49 -116 98 -130 110 -14 11 -45 37 -70 56 -25 19 -52 41 -60 47 -120
98 -427 327 -570 424 -36 24 -67 46 -70 49 -16 16 -498 326 -567 365 -10 6
-81 47 -158 91 -368 214 -731 397 -1120 566 -88 39 -173 76 -190 83 -16 7 -73
30 -125 50 -52 21 -108 43 -125 50 -124 54 -569 206 -805 276 -74 22 -164 49
-200 60 -75 22 -524 136 -572 144 -18 3 -49 10 -68 15 -36 9 -84 20 -110 24
-8 1 -28 6 -45 9 -36 9 -50 12 -185 36 -58 11 -122 22 -144 26 -21 3 -41 7
-45 9 -3 2 -31 7 -61 10 -30 4 -62 8 -70 10 -8 3 -35 7 -60 10 -25 3 -54 8
-65 10 -11 2 -45 7 -75 11 -30 3 -66 8 -80 10 -14 2 -50 7 -80 10 -30 3 -62 8
-70 10 -8 2 -53 7 -99 10 -47 4 -92 8 -100 10 -9 2 -54 6 -101 10 -47 3 -101
8 -120 11 -19 2 -82 6 -140 9 -58 3 -125 8 -150 11 -51 6 -1056 15 -1061 9z"/>
</g>
</svg>
